# xmcd
#
# Track frame offsets:
#	225
#	16430
#	28723
#	42585
#	59733
#	75774
#	91331
#	104827
#	121731
#	135798
#
# Disc length: 1991 seconds
#
# Revision: 0
# Processed by: cddbd v1.5.1PL0 Copyright (c) Steve Scherf et al.
# Submitted via: dBpowerAMP V4.0
#
DISCID=7b07c40a
DTITLE=EL PODER DEL NORTE - 30 DE COLECCIÓN
DYEAR=1900
DGENRE=NORTEÑA
TTITLE0=NI QUE VALIERAS TANTO
TTITLE1=COMO TE EXTRAÑO
TTITLE2=EL 
TTITLE3=A ELLA
TTITLE4=PIEL DE ANGEL
TTITLE5=OYE COMO LATE MI CORAZON
TTITLE6=MI DECISION 
TTITLE7=MI VIDA ERES TU 
TTITLE8=ENAMORADA
TTITLE9=EL DIA QUE ME QUIERAS
EXTD=XXXCELENTTTTT
EXTT0=
EXTT1=
EXTT2=
EXTT3=
EXTT4=
EXTT5=
EXTT6=
EXTT7=
EXTT8=
EXTT9=
PLAYORDER=
